Coordinates
version=1
nRows=7
nColumns=63
inDegrees=yes

Units are S.I. units (second, meters, Newtons, ...)
If the header above contains a line with 'inDegrees', this indicates whether rotational values are in degrees (yes) or radians (no).

endheader
time	pelvis_tilt	pelvis_list	pelvis_rotation	pelvis_tx	pelvis_ty	pelvis_tz	hip_flexion_r	hip_adduction_r	hip_rotation_r	knee_angle_r	knee_angle_r_beta	ankle_angle_r	subtalar_angle_r	mtp_angle_r	hip_flexion_l	hip_adduction_l	hip_rotation_l	knee_angle_l	knee_angle_l_beta	ankle_angle_l	subtalar_angle_l	mtp_angle_l	L5_S1_Flex_Ext	L5_S1_Lat_Bending	L5_S1_axial_rotation	L4_L5_Flex_Ext	L4_L5_Lat_Bending	L4_L5_axial_rotation	L3_L4_Flex_Ext	L3_L4_Lat_Bending	L3_L4_axial_rotation	L2_L3_Flex_Ext	L2_L3_Lat_Bending	L2_L3_axial_rotation	L1_L2_Flex_Ext	L1_L2_Lat_Bending	L1_L2_axial_rotation	L1_T12_Flex_Ext	L1_T12_Lat_Bending	L1_T12_axial_rotation	Abs_r3	Abs_r2	Abs_r1	Abs_t1	Abs_t2	neck_flexion	neck_bending	neck_rotation	arm_flex_r	arm_add_r	arm_rot_r	elbow_flex_r	pro_sup_r	wrist_flex_r	wrist_dev_r	arm_flex_l	arm_add_l	arm_rot_l	elbow_flex_l	pro_sup_l	wrist_flex_l	wrist_dev_l
      0.00000000	     -0.31648229	     -3.82381950	     88.12370640	      0.14415867	      0.84374496	      0.52828090	      4.10123201	     -0.20178632	      8.63128414	      0.90782915	      0.01584461	     22.46854917	     -4.00138038	      0.00000000	      4.89653322	     -0.18020707	     13.29767155	      2.89475566	      0.05052302	     15.93900220	    -14.77202660	      0.00000000	      0.43556332	      0.29061439	      2.26410714	      0.80888465	      0.38651714	      2.40561383	      0.71558698	      0.70659984	      2.40561383	      0.49780532	      0.70659984	      1.98109374	      0.40446410	      0.59262087	      1.83958705	      0.24888088	      0.45016170	      1.69808035	      3.11118525	      3.28748815	     12.59228466	      0.00000000	      0.00000000	     28.29851017	     -4.66559913	      0.75461692	     20.85973960	     -6.88282528	     40.33139216	     33.84183254	     80.61261086	      9.56313781	      9.27571582	     32.73048839	      0.12701725	     79.63309474	     31.05449513	     34.40567139	      2.53813670	      1.04297393
      0.01666667	     -1.08507777	     -3.82896463	     88.11168882	      0.14665192	      0.84401760	      0.52923622	      4.22069395	     -0.83194347	      9.47393264	      0.95666498	      0.01669695	     22.26318543	     -5.61583587	      0.00000000	      5.11615662	      0.49118360	     11.56940682	      3.27232431	      0.05711283	     15.99724063	    -13.52718675	      0.00000000	      0.41192730	      0.13821059	      2.37661676	      0.76499020	      0.18382009	      2.52515530	      0.67675537	      0.33604523	      2.52515530	      0.47079172	      0.33604523	      2.07953966	      0.38251569	      0.28183904	      1.93100111	      0.23537526	      0.21408821	      1.78246257	      2.94235554	      1.56346586	     13.21802941	      0.00000000	      0.00000000	     28.23501995	     -3.43084642	     -1.49798567	     21.52763639	     -6.81188427	     39.60106100	     34.63168821	     81.52805517	     11.18178559	      8.51087405	     33.87705304	      0.18123949	     76.13199272	     32.46914122	     32.12907346	      0.78575321	      3.64748878
      0.03333333	     -1.55060349	     -3.79612863	     88.20354310	      0.14806946	      0.84427539	      0.53000619	      4.27557100	     -1.20642517	      9.37376004	      1.01864206	      0.01777866	     22.25469680	     -5.96427698	      0.00000000	      5.24870530	      0.92487690	     10.93862129	      3.50542436	      0.06118120	     15.72738560	    -13.55584026	      0.00000000	      0.38926000	      0.05249167	      2.37133655	      0.72289475	      0.06981392	      2.51954508	      0.63951525	      0.12762825	      2.51954508	      0.44488525	      0.12762825	      2.07491948	      0.36146684	      0.10704102	      1.92671094	      0.22242316	      0.08130960	      1.77850241	      2.78044526	      0.59379629	     13.18866247	      0.00000000	      0.00000000	     28.17869802	     -2.38970756	     -2.02905219	     22.36244208	     -7.07371289	     39.45153442	     35.78640546	     81.84993931	     11.62061393	      8.26646643	     35.29323813	      0.51843716	     75.14764557	     32.51281612	     31.77720433	      0.41126409	      4.29675979
      0.05000000	     -2.05295406	     -3.95740996	     88.08733798	      0.14990592	      0.84407300	      0.53037762	      4.52802659	     -1.58768866	     10.30898950	      1.06355450	      0.01856253	     22.11464417	     -7.06833519	      0.00000000	      5.52011195	      1.32141814	      9.76188355	      3.64380567	      0.06359641	     16.05443105	    -12.59191491	      0.00000000	      0.40990844	     -0.04605744	      2.32200180	      0.76124096	     -0.06125640	      2.46712691	      0.67343857	     -0.11198407	      2.46712691	      0.46848435	     -0.11198407	      2.03175157	      0.38064097	     -0.09392034	      1.88662646	      0.23422168	     -0.07134298	      1.74150135	      2.92793497	     -0.52101101	     12.91427740	      0.00000000	      0.00000000	     28.12031992	     -1.29458210	     -3.08660872	     23.00012554	     -6.65377626	     38.00852908	     36.56226069	     84.15708801	     11.05881756	      7.94378697	     36.17457109	      0.29359976	     72.82147816	     33.25283310	     30.90762819	     -0.32589302	      8.48744697
      0.06666667	     -2.19883077	     -3.92405074	     88.06972161	      0.15044119	      0.84415397	      0.53097091	      4.56730667	     -1.67229044	     10.56325523	      1.11331591	      0.01943103	     22.09581207	     -7.42133785	      0.00000000	      5.62692162	      1.46522418	      9.20796579	      3.80989077	      0.06649514	     16.08869405	    -12.56032048	      0.00000000	      0.39833141	     -0.07105948	      2.22095521	      0.73974127	     -0.09450910	      2.35976491	      0.65441868	     -0.17277401	      2.35976491	      0.45525297	     -0.17277401	      1.94333581	      0.36989055	     -0.14490449	      1.80452611	      0.22760657	     -0.11007113	      1.66571641	      2.84524146	     -0.80383902	     12.35228657	      0.00000000	      0.00000000	     28.08321495	     -0.60018766	     -2.91321074	     23.94800336	     -6.79864076	     37.50792871	     37.58114609	     85.22455391	     10.30936098	      8.15343251	     37.17127729	      0.58233635	     72.26152600	     32.71595832	     30.91646808	     -0.41332072	      9.77390578
      0.08333333	     -2.15873973	     -4.02603759	     87.95193526	      0.15114512	      0.84390469	      0.53120247	      4.72633719	     -1.55105052	     11.09406399	      1.13697427	      0.01984394	     22.01285885	     -7.80369170	      0.00000000	      5.75847490	      1.36153630	      8.96079693	      3.80575853	      0.06642302	     16.55154202	    -12.34539809	      0.00000000	      0.42041607	     -0.06813527	      2.09410936	      0.78075468	     -0.09061991	      2.22499120	      0.69070156	     -0.16566409	      2.22499120	      0.48049353	     -0.16566409	      1.83234569	      0.39039836	     -0.13894144	      1.70146386	      0.24022574	     -0.10554153	      1.57058202	      3.00298995	     -0.77075978	     11.64680803	      0.00000000	      0.00000000	     28.03295235	     -0.16406803	     -2.31963868	     24.64881612	     -6.58131837	     36.46784196	     38.45854881	     86.85838220	      8.02899101	      8.60515833	     37.90988647	      0.44216964	     71.51967827	     32.59923255	     30.76846841	      0.03611255	     12.10367346
      0.10000000	     -2.22208512	     -4.12915421	     87.77075160	      0.15136038	      0.84365768	      0.53157811	      4.88777838	     -1.57107919	     11.24100573	      1.09376691	      0.01908983	     21.99877884	     -7.76366851	      0.00000000	      5.84307053	      1.40757911	      8.84583930	      3.64851464	      0.06367859	     16.80289148	    -12.43918052	      0.00000000	      0.43550071	     -0.07338215	      2.01699206	      0.80876837	     -0.09759826	      2.14305406	      0.71548412	     -0.17842135	      2.14305406	      0.49773376	     -0.17842135	      1.76486805	      0.40440596	     -0.14964087	      1.63880605	      0.24884511	     -0.11366895	      1.51274404	      3.11073802	     -0.83011353	     11.21790474	      0.00000000	      0.00000000	     28.00923831	     -0.12280364	     -2.29036321	     25.60600013	     -6.69862125	     36.04359342	     38.97356409	     86.94393361	      7.77298025	      8.51692051	     38.43322954	      0.37829860	     71.25090878	     32.46320884	     30.74019527	      0.02808359	     12.15904215
